<svg width="30" height="30" viewBox="0 0 30 30" fill="none" xmlns="http://www.w3.org/2000/svg">
<circle cx="15" cy="15" r="15" fill="white"/>
<path d="M22 7H8C7.20435 7 6.44129 7.31607 5.87868 7.87868C5.31607 8.44129 5 9.20435 5 10V20C5 20.7956 5.31607 21.5587 5.87868 22.1213C6.44129 22.6839 7.20435 23 8 23H22C22.7956 23 23.5587 22.6839 24.1213 22.1213C24.6839 21.5587 25 20.7956 25 20V10C25 9.20435 24.6839 8.44129 24.1213 7.87868C23.5587 7.31607 22.7956 7 22 7ZM22 9L15.5 13.47C15.348 13.5578 15.1755 13.604 15 13.604C14.8245 13.604 14.652 13.5578 14.5 13.47L8 9H22Z" fill="#15803d"/>
</svg>
