<svg width="30" height="30" viewBox="0 0 30 30" fill="none" xmlns="http://www.w3.org/2000/svg">
<circle cx="15" cy="15" r="15" fill="white"/>
<path fill-rule="evenodd" clip-rule="evenodd" d="M15.2326 23.9139L15.5 23.5281L15.2326 23.9139ZM15.7674 23.9139L15.7693 23.913L15.7739 23.9097L15.7879 23.8988L15.8426 23.8587C15.8891 23.8237 15.9569 23.7727 16.0423 23.7057C16.2131 23.5725 16.4555 23.3765 16.7448 23.1248C17.504 22.4647 18.214 21.7481 18.8689 20.9809C20.4047 19.1741 22 16.5953 22 13.6471C22 11.8857 21.3156 10.1951 20.0974 8.94843C19.4952 8.33141 18.779 7.8416 17.99 7.50721C17.201 7.17282 16.3548 7.00044 15.5 7C14.6453 7.00038 13.7991 7.17268 13.0101 7.50699C12.2211 7.8413 11.5048 8.33102 10.9026 8.94796C9.68316 10.1975 8.99918 11.887 9 13.6476C9 16.5953 10.5953 19.1741 12.1311 20.9809C12.786 21.7481 13.496 22.4647 14.2553 23.1248C14.545 23.3765 14.7869 23.5725 14.9577 23.7057C15.0415 23.7714 15.1262 23.8359 15.2117 23.8993L15.2265 23.9097L15.2307 23.913L15.2326 23.9139C15.3928 24.0287 15.6073 24.0287 15.7674 23.9139ZM15.5 23.5281L15.7674 23.9139L15.5 23.5281ZM17.8214 13.6112C17.8214 14.2375 17.5768 14.838 17.1415 15.2808C16.7061 15.7236 16.1157 15.9724 15.5 15.9724C14.8843 15.9724 14.2939 15.7236 13.8585 15.2808C13.4232 14.838 13.1786 14.2375 13.1786 13.6112C13.1786 12.985 13.4232 12.3845 13.8585 11.9417C14.2939 11.4989 14.8843 11.2501 15.5 11.2501C16.1157 11.2501 16.7061 11.4989 17.1415 11.9417C17.5768 12.3845 17.8214 12.985 17.8214 13.6112Z" fill="#15803d"/>
</svg>
