<svg width="30" height="30" viewBox="0 0 30 30" fill="none" xmlns="http://www.w3.org/2000/svg">
<circle cx="15" cy="15" r="15" fill="white"/>
<path d="M22.2903 17.3014C22.1938 16.6312 21.6764 16.1088 21.0102 15.9531C18.4211 15.3462 17.772 13.8552 17.6625 12.2014C17.2034 12.116 16.3865 12.0236 15 12.0236C13.6135 12.0236 12.7967 12.116 12.3375 12.2014C12.228 13.8552 11.5789 15.3462 8.98977 15.9531C8.32364 16.1098 7.80621 16.6312 7.70976 17.3014L7.21042 20.7596C7.03459 21.9774 7.92879 23.0755 9.17263 23.0755H20.8274C22.0702 23.0755 22.9654 21.9774 22.7896 20.7596L22.2903 17.3014ZM15 20.5557C13.5984 20.5557 12.4621 19.4304 12.4621 18.0439C12.4621 16.6574 13.5984 15.5321 15 15.5321C16.4016 15.5321 17.5379 16.6574 17.5379 18.0439C17.5379 19.4304 16.4006 20.5557 15 20.5557ZM24.997 11.0189C24.9729 9.5118 21.1368 7.001 15 7C8.86217 7.001 5.02615 9.5118 5.00305 11.0189C4.97994 12.526 5.02415 14.4872 7.55001 14.1606C10.5049 13.7778 10.323 12.746 10.323 11.2711C10.323 10.2422 12.7263 9.99406 15 9.99406C17.2737 9.99406 19.676 10.2422 19.677 11.2711C19.677 12.746 19.4951 13.7778 22.45 14.1606C24.9749 14.4872 25.0201 12.526 24.997 11.0189Z" fill="#15803d"/>
</svg>
